<?xml version="1.0" encoding="utf-8"?>
<!-- Generator: Adobe Illustrator 25.3.1, SVG Export Plug-In . SVG Version: 6.00 Build 0)  -->
<svg version="1.1" id="Layer_1" xmlns="http://www.w3.org/2000/svg" xmlns:xlink="http://www.w3.org/1999/xlink" x="0px" y="0px"
	 viewBox="0 0 1000 483.01" style="enable-background:new 0 0 1000 483.01;" xml:space="preserve">
<style type="text/css">
	.st0{fill:#3E4E56;}
	.st1{fill:#B08959;}
</style>
<g>
	<g>
		<g>
			<path class="st0" d="M14.52,270.35h11.61c16.18,0,21.8-3.52,21.8-21.1V60.75c0-17.94-4.92-21.8-21.8-21.8H14.52v-4.57h90.03
				c51.7,0,82.64,18.64,82.64,56.27c0,31.3-21.45,50.99-59.43,58.73v1.41c47.48,7.39,68.22,26.73,68.22,62.25
				c0,34.82-34.82,61.89-87.92,61.89H14.52V270.35z M166.09,92.4c0-35.87-24.27-53.45-67.17-53.45h-9.85
				c-16.18,0-22.86,3.16-22.86,20.4v89.68h36.57C140.07,149.02,166.09,130.73,166.09,92.4z M174.53,214.08
				c0-34.46-21.45-60.49-70.33-60.49H66.22v96.36c0,17.58,7.03,20.4,23.56,20.4h18.64C158.36,270.35,174.53,244.67,174.53,214.08z"
				/>
			<path class="st0" d="M219.9,244.32c0-32.71,28.49-49.94,91.08-61.54v-10.55c0-33.76-16.53-43.26-36.57-43.26
				c-18.99,0-35.17,8.44-35.52,14.42c0,1.05,0.7,1.05,1.76,1.41c5.98,1.41,10.9,5.98,10.9,13.72s-5.98,13.36-13.01,13.36
				c-6.68,0-13.01-4.92-13.01-14.42c0-16.18,18.99-32.35,53.45-32.35c23.21,0,48.53,7.74,48.53,49.59v72.09
				c0,17.94,3.52,22.51,9.49,22.51c9.85,0,11.61-13.72,11.61-30.95h3.87c1.76,29.54-8.44,38.68-20.75,38.68
				c-10.9,0-20.04-6.68-20.75-32.71h-0.7c-7.74,17.94-24.27,33.06-51.34,33.06C236.42,277.38,219.9,266.83,219.9,244.32z
				 M310.98,213.38V187c-60.84,10.9-71.74,30.6-71.74,51.7c0,20.04,9.49,32,29.19,32C282.14,270.7,310.98,259.44,310.98,213.38z"/>
			<path class="st0" d="M358.1,271.4h4.57c14.77,0,17.94-4.22,17.94-20.75V58.64c0-16.53-3.16-20.4-17.94-20.4h-3.52v-3.52
				l37.63-6.33v222.26c0,16.53,3.52,20.75,17.94,20.75h4.57v3.52H358.1V271.4z"/>
			<path class="st0" d="M432.66,244.32c0-32.71,28.49-49.94,91.08-61.54v-10.55c0-33.76-16.53-43.26-36.57-43.26
				c-18.99,0-35.17,8.44-35.52,14.42c0,1.05,0.7,1.05,1.76,1.41c5.98,1.41,10.9,5.98,10.9,13.72s-5.98,13.36-13.01,13.36
				c-6.68,0-13.01-4.92-13.01-14.42c0-16.18,18.99-32.35,53.45-32.35c23.21,0,48.53,7.74,48.53,49.59v72.09
				c0,17.94,3.52,22.51,9.49,22.51c9.85,0,11.61-13.72,11.61-30.95h3.87c1.76,29.54-8.44,38.68-20.75,38.68
				c-10.9,0-20.04-6.68-20.75-32.71h-0.7c-7.74,17.94-24.27,33.06-51.34,33.06C449.18,277.38,432.66,266.83,432.66,244.32z
				 M523.74,213.38V187C462.9,197.9,452,217.6,452,238.7c0,20.04,9.49,32,29.19,32C494.9,270.7,523.74,259.44,523.74,213.38z"/>
			<path class="st0" d="M571.21,271.4h3.17c15.47,0,18.99-2.46,18.99-19.69v-98.82c0-17.94-3.52-20.4-18.99-20.4h-3.17v-3.16
				l38.33-2.46l-1.76,48.18h0.7c10.55-33.41,32.35-48.53,55.21-48.53c27.08,0,41.5,16.18,41.5,51.34v73.85
				c0,17.23,4.57,19.69,16.88,19.69h2.81v3.52h-60.84v-3.52h4.92c15.83,0,19.69-2.81,19.69-19.69v-84.75
				c0-26.02-14.42-32.71-28.84-32.71c-27.78,0-49.94,30.24-49.94,59.78v57.67c0,16.88,3.87,19.69,19.34,19.69h4.57v3.52h-62.6V271.4
				z"/>
			<path class="st0" d="M735.79,203.18c0-46.77,30.6-78.78,69.28-78.78c31.3,0,45.01,20.05,45.01,39.04
				c0,8.79-7.03,16.88-15.83,16.88c-8.79,0-14.42-7.03-14.42-15.12c0-7.39,5.28-14.42,13.36-14.42c3.16,0,6.33-0.35,6.33-2.11
				c0-8.44-12.66-21.1-34.82-21.1c-35.17,0-48.53,31.3-48.53,73.5c0,42.9,16.18,71.39,48.53,71.39c19.69,0,32.35-10.2,43.96-27.43
				l2.46,1.76c-9.85,18.99-27.08,32.71-50.64,32.71C763.57,279.49,735.79,250.3,735.79,203.18z"/>
			<path class="st0" d="M865.2,203.18c0-47.48,30.6-78.78,64-78.78c24.27,0,56.27,18.29,56.27,64c0,0.35-0.35,9.14-0.7,10.9h-99.52
				c0,36.57,12.31,73.15,47.83,73.15c24.97,0,39.39-13.72,48.53-30.24l2.81,2.11c-9.5,18.64-25.67,35.17-54.51,35.17
				C892.99,279.49,865.2,250.65,865.2,203.18z M966.13,180.67c0-28.13-11.96-53.1-37.28-53.1c-27.78,0-42.2,29.19-43.61,67.17h62.95
				C963.67,194.74,966.13,192.28,966.13,180.67z"/>
		</g>
	</g>
	<g>
		<path class="st1" d="M384.23,377.27c-0.79-0.5-2.08-0.36-3.02,1.12l-0.03,0.05c-0.97,1.75-2.15,4-3.51,6.61
			c-7.43,14.24-21.26,40.76-32.56,41.42c-2.17,0.05-3.9-0.98-5.31-3.16c-5.97-9.2-3.24-34.57-2.24-37.08
			c0.29-0.29,0.52-0.55,0.63-0.88c0.36-0.57,1.62-2.58,2.85-4.76c8.16-12.54,15.65-25.66,19.39-32.38
			c12.32-23.54,17.24-40.5,12.83-44.27c-1.13-0.97-3.31-1.51-7.25,1.41c-5.64,4.45-14.93,20.98-21.14,37.65
			c-5.21,14.1-7.51,24.19-8.54,29.12c-0.85-2.52-2.32-5.56-4.94-6.68c-1.73-0.74-3.67-0.52-5.75,0.65
			c-4.39,2.38-9.38,9.68-12.72,18.61c-3.25,6.03-12.98,24.07-18.78,24.07c-0.83,0-1.53-0.31-2.14-0.94
			c-2.29-2.34-3.34-8.81-3.11-19.24c0-1.06,0.03-2.16,0.07-3.26c0.13-4.33,0.26-8.42-1.65-10.17c-0.73-0.67-1.66-0.94-2.78-0.82
			c-4.44,0.47-11.21,9.66-20.64,28.03c1.31-4.7,3.58-12.16,7.42-24c0.48-1.64,0.23-3.07-0.67-3.93c-0.67-0.64-1.64-0.84-2.53-0.53
			c-1.14,0.4-1.94,1.55-2.16,3.15c-0.04,0.71-0.75,3.45-1.06,4.62c-0.44,0.8-0.91,1.66-1.41,2.58
			c-6.11,11.2-17.47,32.05-27.87,32.05c-1.71,0-3.1-0.59-4.26-1.8c-2.61-2.74-3.84-8.6-3.46-16.55c0.19-9.51,2.43-19,3.4-22.68
			c0.39-1.06,0.59-1.91,0.73-2.54c0.04-0.17,0.07-0.33,0.12-0.51c0.46-2.31-0.75-2.96-1.13-3.1c-1.1-0.41-2.4,0.35-3.33,1.98
			c-0.48,0.96-1.13,2.27-1.97,3.79l-0.74,1.55c-0.84-4.32-2.5-9.13-5.73-10.66c-1.77-0.84-3.77-0.62-5.89,0.64
			c-9.85,5.19-18.56,30.35-16.04,41.16c1.02,4.4,3.55,5.39,5.51,5.44h0.82l0.22-0.02c4.68-1.08,9.52-7.12,17.83-22.26
			c0.47-0.78,0.84-1.42,1.15-1.94c0.44-0.76,0.84-1.43,1.04-1.69c0.09-0.01,0.18-0.02,0.27-0.04c-0.55,3.67-0.83,7.32-0.83,10.86
			c-0.1,6.98,0.73,16.28,5.29,20.9c1.88,1.91,4.24,2.88,7,2.88c5.63,0,13-3.11,25.28-24.71c-1.69,6.92-3.07,13.61-3.14,18
			c0,2.87,1.2,5.02,2.91,5.23c1.06,0.12,3.02-0.42,4.27-5.52c3.02-14.82,15.32-33.4,18.71-35.75c0.21,1.19,0.21,4.02,0.22,6.56
			c0.02,8.3,0.05,20.85,5.02,25.57c1.46,1.39,3.24,2.02,5.31,1.93c4.55-0.23,9.58-4.88,15.3-14.18c-0.53,5.29-0.31,12.61,4.08,13.82
			c6.08,1.62,12.9-8.84,19.35-20.37c0.02-0.04,0.05-0.09,0.07-0.13c-0.69,13.65-1.84,36.48,10.13,38.88
			c0.65,0.14,1.29,0.21,1.94,0.21c13.05,0,27.15-27.24,35.73-43.83c1.51-2.92,2.82-5.45,3.86-7.31
			C385.41,378.9,385,377.75,384.23,377.27z M316.03,407.71c-1.08,0.51-1.46,0.18-1.6,0.05c-2.05-1.81-0.99-11.8,1.31-18.69
			c3.07-8.92,9.28-17.14,12.79-18.54c0.25-0.1,0.55-0.19,0.83-0.19c0.14,0,0.27,0.02,0.39,0.08c1.84,1.02,2.48,7.62,2.79,10.79
			c0.11,1.12,0.2,2.02,0.3,2.65C332.35,386.35,320.9,405.34,316.03,407.71z M368.92,310.77c0.28-0.25,0.85-0.75,1.3-1.1
			c0.02,0.37,0.02,0.79,0.02,1.03c0,14.48-23.35,52.69-30.48,63.16C342.23,362.49,352.99,325.87,368.92,310.77z M220.38,383.92
			c-0.01,0.55-0.22,1.22-2.32,4.82c-0.35,0.55-0.82,1.31-1.37,2.22c-2.87,4.69-10.48,17.16-14.19,17.16c-0.37,0-0.68-0.53-0.82-0.85
			c-2.17-4.67,0.07-21.2,10.08-33.1c2.93-3.28,4.4-3.85,5.07-3.85c0.23,0,0.37,0.07,0.45,0.12c1.84,1.02,2.48,7.62,2.79,10.79
			C220.18,382.36,220.27,383.28,220.38,383.92z"/>
		<path class="st1" d="M553.86,309.05c-0.62,0.26-1.46,1.13-0.25,3.99c4.8,12.51,4.45,34.72-1.04,66.04
			c-2.08,11.95-13.68,71.7-37.98,73.8c-3.76,0.32-7.12-1.04-9.96-4.04c-12.28-12.95-13.21-53.31-9.97-76.5
			c0.81-5.69,1.64-9.95,2.68-15.33c0.43-2.21,0.89-4.62,1.41-7.37c2.55-10.88,2.6-11.08,1.63-12.29c-0.63-0.83-1.61-1.25-2.64-1.12
			c-1.14,0.15-2.13,0.94-2.62,2.06c-1.06,1.65-2.08,5-2.08,6.36c-0.04,3.2-20.91,45.5-36.04,65c-7.14,9.46-13.76,14.28-18.14,13.23
			c-3.16-0.75-5.47-4.68-6.68-11.33c-2.59-15.05,0.79-40.38,8.82-66.1c4.23-13,10.12-27.59,15.35-38.05
			c1.75-3.34,1.93-3.38,2.75-3.59c1.59-0.28,2.55-1.67,2.39-3.46c-0.17-1.91-1.6-3.88-3.71-3.88c-3.01,0-4.07,1.85-7.28,8.26
			c-4.85,10.23-11.93,30.78-15.96,44.76c-3.26,11.95-5.85,25.8-6.92,37.07c-0.9,11.11-0.73,20.03,0.5,26.47
			c1.48,8.77,4.56,13.98,9.15,15.49c4.82,1.58,10.9-1.13,18.14-8.13l0.49-0.58c1.64-1.93,3.49-4.12,5.45-6.68
			c9.12-12.01,22.79-37.49,29.82-52.5c-0.03,0.15-0.05,0.3-0.08,0.45c-5.87,39.99-2.59,74.09,8.54,89
			c3.42,4.57,7.44,7.22,11.98,7.87c0.82,0.1,1.64,0.16,2.46,0.16c11.89,0,22.3-11.19,30.98-33.32
			c8.92-22.76,12.89-49.29,13.89-56.88c3.49-26.72,2.91-45.54-1.71-55.93C556.24,309.66,554.98,308.57,553.86,309.05z"/>
		<path class="st1" d="M653.26,382.85c8.29-13.77,16.05-29.06,21.87-43.09c3.03-7.82,8.1-21.72,8.1-26.91l-0.01-0.13
			c-0.41-3.11-2.36-5.27-4.74-5.27c-3.17,0-6.88,4.64-8.35,6.66c-5.05,7.5-10.97,20.78-14.71,33.04
			c-3.44,10.64-5.58,20.31-8.55,35.52c-0.45,2.24-1.29,4.01-4.31,9.05c-5.61,9.66-19.84,32.16-30.82,32.47
			c-2.59,0.07-4.66-0.8-6.32-2.66c-6.15-6.89-4.24-24.59-3.51-29.87c0.29-2.46,0.36-2.56,1.53-4.16l0.11-0.15
			c8.16-11.73,17.41-27.26,23.03-38.66c11.65-23.85,14.42-35.21,14.69-40.57c0.16-4.61-1.4-6.07-2.73-6.48
			c-3.62-1.11-8.59,4.27-12.02,9.7c-12.17,19.29-22.23,46.12-26.94,71.79c-8.08,9.69-19.51,19.45-27.05,19.57
			c-1.9,0.09-3.41-0.63-4.5-2.18c-1.69-2.38-1.85-6.01-1.04-8.34c0.41,0.17,1,0.34,1.82,0.34c7.27,0,14.37-10.4,14.42-16.48
			c0.17-1.31-0.18-2.55-0.99-3.48c-0.83-0.95-2.08-1.5-3.43-1.5c-2.58,0-5.41,1.73-8.17,5c-5.3,6.28-9.14,16.58-8.21,22.05
			c1.05,5.93,4.68,9.33,10.02,9.33c0,0,0,0,0,0c7.6-0.35,18.25-9.07,25.96-17.33c-0.09,0.61-0.17,1.21-0.25,1.81
			c-2.45,19.62,0.43,31.6,8.56,35.59c1.74,0.88,3.5,1.29,5.27,1.29c13.52,0,27.45-23.41,33.1-32.9c0.01-0.01,0.02-0.03,0.02-0.04
			c-2.04,25.24-1.09,35.74,3.28,36.19c0.12,0.01,0.24,0.02,0.36,0.02c1.4,0,2.18-0.79,2.33-1.59c0.16-0.88-0.4-1.71-1.27-1.95
			c-2.05-0.8-3.02-15.59,0.59-40.17C650.54,387.78,651.8,385.49,653.26,382.85z M605.4,374.53c2.59-10.28,10.87-38.22,23.88-57.2
			l0.01-0.01c2.59-3.88,5.69-7.54,7.12-8.92c0.2,1.94-0.76,8.38-10.23,29.71l-0.39,0.88C618.9,353.6,609.72,368.25,605.4,374.53z
			 M676.22,321.28c-3.54,13.67-10.6,30.09-20.4,47.48c-1.18,2.12-2.25,3.92-3.13,5.34c1.47-6.3,4.67-17.85,6.87-24.05l0.01-0.03
			c3.61-11.17,9.82-24.15,14.48-30.26c0.89-1.33,2.3-2.99,3.37-4.17C677.24,317.05,676.85,319.14,676.22,321.28z M569.64,385.78
			c1.35-2.34,5.42-9.36,8.49-9.5c0.4,0,0.43,0.09,0.44,0.14c0.48,1.9-4.69,8.97-7.79,10.64c-0.91,0.49-1.53,0.59-1.77,0.55
			C569.01,387.45,569.04,386.93,569.64,385.78z"/>
		<path class="st1" d="M832.95,376.51c-0.9-0.74-2.37-0.53-3.22,0.45l-0.04,0.04c-4.23,5.55-12.49,11.96-21.24,18.75
			c-1.76,1.36-3.54,2.75-5.31,4.14c-11.32-5.82-11.1-10.88-11.02-12.8c0.01-0.16,0.01-0.31,0.01-0.45
			c2.18-2.33,14.86-15.98,16.59-19.92c0.75-1.5,0.49-2.97-0.64-3.64c-2.32-1.38-7.85,1.06-15.81,12.52
			c-2.55,4.05-3.52,6.52-4.14,8.54c-6.95,7.25-14.11,13.29-20.28,18.27c-5.96-4.88-10.63-8.8-10.18-16.61
			c0-0.43,0.17-0.76,2.03-2.77c5.39-5.69,11.61-13.27,13.13-16.81c0.99-1.84,0.8-3.73-0.46-4.59c-1.07-0.73-4.28-1.58-11.02,6.35
			c-4.19,5.26-6.85,9.89-8.14,14.15c-7.96,9.85-20.02,20.45-27.87,20.57c-1.9,0.09-3.41-0.63-4.5-2.18
			c-1.69-2.38-1.85-6.01-1.04-8.34c0.41,0.17,1,0.34,1.82,0.34c7.27,0,14.37-10.4,14.42-16.48c0.17-1.31-0.18-2.55-0.99-3.48
			c-0.83-0.95-2.08-1.5-3.43-1.5c-4.27,0-10.91,5.94-14.82,16.94c-7.62,13.78-13.34,20.77-16.99,20.77c-0.83,0-1.53-0.31-2.14-0.94
			c-2.29-2.34-3.34-8.81-3.11-19.24c0-1.06,0.03-2.16,0.07-3.26c0.13-4.33,0.26-8.42-1.65-10.17c-0.73-0.67-1.66-0.94-2.78-0.82
			c-4.44,0.47-11.21,9.66-20.64,28.03c1.31-4.7,3.58-12.16,7.42-24c0.48-1.64,0.23-3.07-0.67-3.93c-0.68-0.64-1.64-0.84-2.53-0.53
			c-1.14,0.4-1.94,1.55-2.16,3.15c-0.05,0.87-0.99,4.39-2.09,8.47c-2.39,8.92-6,22.39-6.11,29.46c0,2.87,1.2,5.02,2.91,5.23
			c1.07,0.12,3.02-0.42,4.27-5.52c3.03-14.82,15.33-33.4,18.71-35.75c0.21,1.19,0.21,4.02,0.22,6.56c0.02,8.3,0.04,20.85,5.02,25.58
			c1.46,1.39,3.24,2.03,5.31,1.93c4.61-0.23,9.69-4.97,15.47-14.46c1.15,5.65,4.73,8.88,9.94,8.88c0,0,0,0,0,0
			c8.48-0.39,20.29-11.07,27.11-18.58c0.52,7.3,5.97,12.56,11.45,16.95c-1.81,1.44-3.57,2.82-5.27,4.16
			c-13.53,10.64-23.31,18.32-23.16,27.48c0,6.53,5.86,9.5,11.31,9.5c6.26,0,14.16-3.33,20.63-8.69c7-5.8,11.01-12.79,11.01-19.15
			c0.17-6.19-3-10.17-6.68-13.45c5.72-4.76,11.02-9.65,15.79-14.57c1.54,5.22,6.5,8.71,11.96,11.63c-4.7,3.98-9.46,8.18-12.94,12.29
			c-6.44,7.53-9.2,15.44-7.03,20.15c0.83,1.79,2.73,3.93,7.12,3.93c11.14,0,32.61-15.08,32.78-25.19
			c0.34-5.96-5.64-9.08-11.81-11.94c3-2.54,6.04-5.01,9-7.41c7-5.68,13.05-10.58,16.21-14.54
			C834.39,377.88,833.2,376.72,832.95,376.51z M814.57,413.68c0,6.27-18.94,20.34-27.39,20.34c-1.53,0-2.5-0.47-2.97-1.43
			c-1.25-2.58,1.03-8.35,5.52-14.01c3.44-4.01,7.94-8.38,14.14-13.72c0.54,0.29,1.07,0.57,1.59,0.84
			C810.55,408.37,814.57,410.49,814.57,413.68z M759.7,415.27c2.54-2.02,5.17-4.1,7.96-6.39c3.91,3.43,5.59,6.66,5.59,10.7
			c0,11.86-18.38,22.96-26.73,22.96c-4.36,0-6.57-1.49-6.57-4.43C739.95,430.94,747.81,424.71,759.7,415.27z M722.46,385.78
			c1.35-2.34,5.42-9.36,8.49-9.5c0.4,0,0.43,0.09,0.44,0.14c0.48,1.9-4.69,8.97-7.79,10.64c-0.91,0.49-1.53,0.59-1.77,0.55
			C721.82,387.45,721.86,386.93,722.46,385.78z"/>
	</g>
</g>
</svg>
